<?xml version="1.0" encoding="UTF-8" standalone="no"?>
<!-- Created with Inkscape (http://www.inkscape.org/) -->

<svg
   width="700"
   height="600"
   viewBox="0 0 700 600"
   version="1.1"
   id="svg5"
   inkscape:version="1.2.1 (9c6d41e410, 2022-07-14)"
   sodipodi:docname="drawing.svg"
   inkscape:export-filename="../../../run/media/zeus/7B57-FB9F/cocos2d-x-4.0/Proyecto/parcial2/drawing.png"
   inkscape:export-xdpi="96"
   inkscape:export-ydpi="96"
   xmlns:inkscape="http://www.inkscape.org/namespaces/inkscape"
   xmlns:sodipodi="http://sodipodi.sourceforge.net/DTD/sodipodi-0.dtd"
   xmlns="http://www.w3.org/2000/svg"
   xmlns:svg="http://www.w3.org/2000/svg">
  <sodipodi:namedview
     id="namedview"
     pagecolor="#404040"
     bordercolor="#00ff00"
     borderopacity="1"
     inkscape:pageshadow="0"
     inkscape:pageopacity="0"
     inkscape:pagecheckerboard="1"
     inkscape:document-units="px"
     showgrid="true"
     units="px"
     height="1024px"
     inkscape:zoom="0.77595561"
     inkscape:cx="288.67631"
     inkscape:cy="208.77483"
     inkscape:window-width="1920"
     inkscape:window-height="1007"
     inkscape:window-x="0"
     inkscape:window-y="0"
     inkscape:window-maximized="1"
     inkscape:current-layer="layer1"
     scale-x="1"
     inkscape:showpageshadow="0"
     inkscape:deskcolor="#404040">
    <inkscape:grid
       type="xygrid"
       id="grid487"
       spacingx="100"
       spacingy="100" />
  </sodipodi:namedview>
  <defs
     id="defs1" />
  <g
     inkscape:label="Layer 1"
     inkscape:groupmode="layer"
     id="layer1">
    <path
       id="rect231"
       style="fill:#0000ff;stroke-width:1.28"
       d="M 0 0 L 0 600 L 700 600 L 700 0 L 0 0 z M 50 10 A 40 40 0 0 1 90 50 A 40 40 0 0 1 50 90 A 40 40 0 0 1 10 50 A 40 40 0 0 1 50 10 z M 150 10 A 40 40 0 0 1 190 50 A 40 40 0 0 1 150 90 A 40 40 0 0 1 110 50 A 40 40 0 0 1 150 10 z M 250 10 A 40 40 0 0 1 290 50 A 40 40 0 0 1 250 90 A 40 40 0 0 1 210 50 A 40 40 0 0 1 250 10 z M 350 10 A 40 40 0 0 1 390 50 A 40 40 0 0 1 350 90 A 40 40 0 0 1 310 50 A 40 40 0 0 1 350 10 z M 450 10 A 40 40 0 0 1 490 50 A 40 40 0 0 1 450 90 A 40 40 0 0 1 410 50 A 40 40 0 0 1 450 10 z M 550 10 A 40 40 0 0 1 590 50 A 40 40 0 0 1 550 90 A 40 40 0 0 1 510 50 A 40 40 0 0 1 550 10 z M 650 10 A 40 40 0 0 1 690 50 A 40 40 0 0 1 650 90 A 40 40 0 0 1 610 50 A 40 40 0 0 1 650 10 z M 50 110 A 40 40 0 0 1 90 150 A 40 40 0 0 1 50 190 A 40 40 0 0 1 10 150 A 40 40 0 0 1 50 110 z M 150 110 A 40 40 0 0 1 190 150 A 40 40 0 0 1 150 190 A 40 40 0 0 1 110 150 A 40 40 0 0 1 150 110 z M 250 110 A 40 40 0 0 1 290 150 A 40 40 0 0 1 250 190 A 40 40 0 0 1 210 150 A 40 40 0 0 1 250 110 z M 350 110 A 40 40 0 0 1 390 150 A 40 40 0 0 1 350 190 A 40 40 0 0 1 310 150 A 40 40 0 0 1 350 110 z M 450 110 A 40 40 0 0 1 490 150 A 40 40 0 0 1 450 190 A 40 40 0 0 1 410 150 A 40 40 0 0 1 450 110 z M 550 110 A 40 40 0 0 1 590 150 A 40 40 0 0 1 550 190 A 40 40 0 0 1 510 150 A 40 40 0 0 1 550 110 z M 650 110 A 40 40 0 0 1 690 150 A 40 40 0 0 1 650 190 A 40 40 0 0 1 610 150 A 40 40 0 0 1 650 110 z M 50 210 A 40 40 0 0 1 90 250 A 40 40 0 0 1 50 290 A 40 40 0 0 1 10 250 A 40 40 0 0 1 50 210 z M 150 210 A 40 40 0 0 1 190 250 A 40 40 0 0 1 150 290 A 40 40 0 0 1 110 250 A 40 40 0 0 1 150 210 z M 250 210 A 40 40 0 0 1 290 250 A 40 40 0 0 1 250 290 A 40 40 0 0 1 210 250 A 40 40 0 0 1 250 210 z M 350 210 A 40 40 0 0 1 390 250 A 40 40 0 0 1 350 290 A 40 40 0 0 1 310 250 A 40 40 0 0 1 350 210 z M 450 210 A 40 40 0 0 1 490 250 A 40 40 0 0 1 450 290 A 40 40 0 0 1 410 250 A 40 40 0 0 1 450 210 z M 550 210 A 40 40 0 0 1 590 250 A 40 40 0 0 1 550 290 A 40 40 0 0 1 510 250 A 40 40 0 0 1 550 210 z M 650 210 A 40 40 0 0 1 690 250 A 40 40 0 0 1 650 290 A 40 40 0 0 1 610 250 A 40 40 0 0 1 650 210 z M 50 310 A 40 40 0 0 1 55.583984 310.39844 A 40 40 0 0 1 55.753906 310.41992 A 40 40 0 0 1 61.150391 311.5957 A 40 40 0 0 1 61.341797 311.64844 A 40 40 0 0 1 66.472656 313.56055 A 40 40 0 0 1 66.714844 313.66797 A 40 40 0 0 1 71.466797 316.26367 A 40 40 0 0 1 71.746094 316.43945 A 40 40 0 0 1 76.046875 319.6582 A 40 40 0 0 1 76.316406 319.89062 A 40 40 0 0 1 80.109375 323.68359 A 40 40 0 0 1 80.341797 323.95312 A 40 40 0 0 1 83.560547 328.25391 A 40 40 0 0 1 83.736328 328.5332 A 40 40 0 0 1 86.332031 333.28516 A 40 40 0 0 1 86.439453 333.52734 A 40 40 0 0 1 88.351562 338.6582 A 40 40 0 0 1 88.404297 338.84961 A 40 40 0 0 1 89.580078 344.24609 A 40 40 0 0 1 89.601562 344.41602 A 40 40 0 0 1 90 350 A 40 40 0 0 1 87.048828 364.83789 A 40 40 0 0 1 86.769531 365.58398 A 40 40 0 0 1 78.576172 377.84961 A 40 40 0 0 1 77.849609 378.57617 A 40 40 0 0 1 65.583984 386.76953 A 40 40 0 0 1 64.837891 387.04883 A 40 40 0 0 1 50 390 A 40 40 0 0 1 35.162109 387.04883 A 40 40 0 0 1 34.416016 386.76953 A 40 40 0 0 1 22.150391 378.57617 A 40 40 0 0 1 21.423828 377.84961 A 40 40 0 0 1 13.230469 365.58398 A 40 40 0 0 1 12.951172 364.83789 A 40 40 0 0 1 10 350 A 40 40 0 0 1 12.951172 335.16211 A 40 40 0 0 1 13.230469 334.41602 A 40 40 0 0 1 21.423828 322.15039 A 40 40 0 0 1 22.150391 321.42383 A 40 40 0 0 1 34.416016 313.23047 A 40 40 0 0 1 35.162109 312.95117 A 40 40 0 0 1 50 310 z M 150 310 A 40 40 0 0 1 155.58398 310.39844 A 40 40 0 0 1 155.75391 310.41992 A 40 40 0 0 1 161.15039 311.5957 A 40 40 0 0 1 161.3418 311.64844 A 40 40 0 0 1 166.47266 313.56055 A 40 40 0 0 1 166.71484 313.66797 A 40 40 0 0 1 171.4668 316.26367 A 40 40 0 0 1 171.74609 316.43945 A 40 40 0 0 1 176.04688 319.6582 A 40 40 0 0 1 176.31641 319.89062 A 40 40 0 0 1 180.10938 323.68359 A 40 40 0 0 1 180.3418 323.95312 A 40 40 0 0 1 183.56055 328.25391 A 40 40 0 0 1 183.73633 328.5332 A 40 40 0 0 1 186.33203 333.28516 A 40 40 0 0 1 186.43945 333.52734 A 40 40 0 0 1 188.35156 338.6582 A 40 40 0 0 1 188.4043 338.84961 A 40 40 0 0 1 189.58008 344.24609 A 40 40 0 0 1 189.60156 344.41602 A 40 40 0 0 1 190 350 A 40 40 0 0 1 187.04883 364.83789 A 40 40 0 0 1 186.76953 365.58398 A 40 40 0 0 1 178.57617 377.84961 A 40 40 0 0 1 177.84961 378.57617 A 40 40 0 0 1 165.58398 386.76953 A 40 40 0 0 1 164.83789 387.04883 A 40 40 0 0 1 150 390 A 40 40 0 0 1 135.16211 387.04883 A 40 40 0 0 1 134.41602 386.76953 A 40 40 0 0 1 122.15039 378.57617 A 40 40 0 0 1 121.42383 377.84961 A 40 40 0 0 1 113.23047 365.58398 A 40 40 0 0 1 112.95117 364.83789 A 40 40 0 0 1 110 350 A 40 40 0 0 1 112.95117 335.16211 A 40 40 0 0 1 113.23047 334.41602 A 40 40 0 0 1 121.42383 322.15039 A 40 40 0 0 1 122.15039 321.42383 A 40 40 0 0 1 134.41602 313.23047 A 40 40 0 0 1 135.16211 312.95117 A 40 40 0 0 1 150 310 z M 250 310 A 40 40 0 0 1 255.58398 310.39844 A 40 40 0 0 1 255.75391 310.41992 A 40 40 0 0 1 261.15039 311.5957 A 40 40 0 0 1 261.3418 311.64844 A 40 40 0 0 1 266.47266 313.56055 A 40 40 0 0 1 266.71484 313.66797 A 40 40 0 0 1 271.4668 316.26367 A 40 40 0 0 1 271.74609 316.43945 A 40 40 0 0 1 276.04688 319.6582 A 40 40 0 0 1 276.31641 319.89062 A 40 40 0 0 1 280.10938 323.68359 A 40 40 0 0 1 280.3418 323.95312 A 40 40 0 0 1 283.56055 328.25391 A 40 40 0 0 1 283.73633 328.5332 A 40 40 0 0 1 286.33203 333.28516 A 40 40 0 0 1 286.43945 333.52734 A 40 40 0 0 1 288.35156 338.6582 A 40 40 0 0 1 288.4043 338.84961 A 40 40 0 0 1 289.58008 344.24609 A 40 40 0 0 1 289.60156 344.41602 A 40 40 0 0 1 290 350 A 40 40 0 0 1 287.04883 364.83789 A 40 40 0 0 1 286.76953 365.58398 A 40 40 0 0 1 278.57617 377.84961 A 40 40 0 0 1 277.84961 378.57617 A 40 40 0 0 1 265.58398 386.76953 A 40 40 0 0 1 264.83789 387.04883 A 40 40 0 0 1 250 390 A 40 40 0 0 1 235.16211 387.04883 A 40 40 0 0 1 234.41602 386.76953 A 40 40 0 0 1 222.15039 378.57617 A 40 40 0 0 1 221.42383 377.84961 A 40 40 0 0 1 213.23047 365.58398 A 40 40 0 0 1 212.95117 364.83789 A 40 40 0 0 1 210 350 A 40 40 0 0 1 212.95117 335.16211 A 40 40 0 0 1 213.23047 334.41602 A 40 40 0 0 1 221.42383 322.15039 A 40 40 0 0 1 222.15039 321.42383 A 40 40 0 0 1 234.41602 313.23047 A 40 40 0 0 1 235.16211 312.95117 A 40 40 0 0 1 250 310 z M 350 310 A 40 40 0 0 1 355.58398 310.39844 A 40 40 0 0 1 355.75391 310.41992 A 40 40 0 0 1 361.15039 311.5957 A 40 40 0 0 1 361.3418 311.64844 A 40 40 0 0 1 366.47266 313.56055 A 40 40 0 0 1 366.71484 313.66797 A 40 40 0 0 1 371.4668 316.26367 A 40 40 0 0 1 371.74609 316.43945 A 40 40 0 0 1 376.04688 319.6582 A 40 40 0 0 1 376.31641 319.89062 A 40 40 0 0 1 380.10938 323.68359 A 40 40 0 0 1 380.3418 323.95312 A 40 40 0 0 1 383.56055 328.25391 A 40 40 0 0 1 383.73633 328.5332 A 40 40 0 0 1 386.33203 333.28516 A 40 40 0 0 1 386.43945 333.52734 A 40 40 0 0 1 388.35156 338.6582 A 40 40 0 0 1 388.4043 338.84961 A 40 40 0 0 1 389.58008 344.24609 A 40 40 0 0 1 389.60156 344.41602 A 40 40 0 0 1 390 350 A 40 40 0 0 1 387.04883 364.83789 A 40 40 0 0 1 386.76953 365.58398 A 40 40 0 0 1 378.57617 377.84961 A 40 40 0 0 1 377.84961 378.57617 A 40 40 0 0 1 365.58398 386.76953 A 40 40 0 0 1 364.83789 387.04883 A 40 40 0 0 1 350 390 A 40 40 0 0 1 335.16211 387.04883 A 40 40 0 0 1 334.41602 386.76953 A 40 40 0 0 1 322.15039 378.57617 A 40 40 0 0 1 321.42383 377.84961 A 40 40 0 0 1 313.23047 365.58398 A 40 40 0 0 1 312.95117 364.83789 A 40 40 0 0 1 310 350 A 40 40 0 0 1 312.95117 335.16211 A 40 40 0 0 1 313.23047 334.41602 A 40 40 0 0 1 321.42383 322.15039 A 40 40 0 0 1 322.15039 321.42383 A 40 40 0 0 1 334.41602 313.23047 A 40 40 0 0 1 335.16211 312.95117 A 40 40 0 0 1 350 310 z M 450 310 A 40 40 0 0 1 455.58398 310.39844 A 40 40 0 0 1 455.75391 310.41992 A 40 40 0 0 1 461.15039 311.5957 A 40 40 0 0 1 461.3418 311.64844 A 40 40 0 0 1 466.47266 313.56055 A 40 40 0 0 1 466.71484 313.66797 A 40 40 0 0 1 471.4668 316.26367 A 40 40 0 0 1 471.74609 316.43945 A 40 40 0 0 1 476.04688 319.6582 A 40 40 0 0 1 476.31641 319.89062 A 40 40 0 0 1 480.10938 323.68359 A 40 40 0 0 1 480.3418 323.95312 A 40 40 0 0 1 483.56055 328.25391 A 40 40 0 0 1 483.73633 328.5332 A 40 40 0 0 1 486.33203 333.28516 A 40 40 0 0 1 486.43945 333.52734 A 40 40 0 0 1 488.35156 338.6582 A 40 40 0 0 1 488.4043 338.84961 A 40 40 0 0 1 489.58008 344.24609 A 40 40 0 0 1 489.60156 344.41602 A 40 40 0 0 1 490 350 A 40 40 0 0 1 487.04883 364.83789 A 40 40 0 0 1 486.76953 365.58398 A 40 40 0 0 1 478.57617 377.84961 A 40 40 0 0 1 477.84961 378.57617 A 40 40 0 0 1 465.58398 386.76953 A 40 40 0 0 1 464.83789 387.04883 A 40 40 0 0 1 450 390 A 40 40 0 0 1 435.16211 387.04883 A 40 40 0 0 1 434.41602 386.76953 A 40 40 0 0 1 422.15039 378.57617 A 40 40 0 0 1 421.42383 377.84961 A 40 40 0 0 1 413.23047 365.58398 A 40 40 0 0 1 412.95117 364.83789 A 40 40 0 0 1 410 350 A 40 40 0 0 1 412.95117 335.16211 A 40 40 0 0 1 413.23047 334.41602 A 40 40 0 0 1 421.42383 322.15039 A 40 40 0 0 1 422.15039 321.42383 A 40 40 0 0 1 434.41602 313.23047 A 40 40 0 0 1 435.16211 312.95117 A 40 40 0 0 1 450 310 z M 550 310 A 40 40 0 0 1 555.58398 310.39844 A 40 40 0 0 1 555.75391 310.41992 A 40 40 0 0 1 561.15039 311.5957 A 40 40 0 0 1 561.3418 311.64844 A 40 40 0 0 1 566.47266 313.56055 A 40 40 0 0 1 566.71484 313.66797 A 40 40 0 0 1 571.4668 316.26367 A 40 40 0 0 1 571.74609 316.43945 A 40 40 0 0 1 576.04688 319.6582 A 40 40 0 0 1 576.31641 319.89062 A 40 40 0 0 1 580.10938 323.68359 A 40 40 0 0 1 580.3418 323.95312 A 40 40 0 0 1 583.56055 328.25391 A 40 40 0 0 1 583.73633 328.5332 A 40 40 0 0 1 586.33203 333.28516 A 40 40 0 0 1 586.43945 333.52734 A 40 40 0 0 1 588.35156 338.6582 A 40 40 0 0 1 588.4043 338.84961 A 40 40 0 0 1 589.58008 344.24609 A 40 40 0 0 1 589.60156 344.41602 A 40 40 0 0 1 590 350 A 40 40 0 0 1 587.04883 364.83789 A 40 40 0 0 1 586.76953 365.58398 A 40 40 0 0 1 578.57617 377.84961 A 40 40 0 0 1 577.84961 378.57617 A 40 40 0 0 1 565.58398 386.76953 A 40 40 0 0 1 564.83789 387.04883 A 40 40 0 0 1 550 390 A 40 40 0 0 1 535.16211 387.04883 A 40 40 0 0 1 534.41602 386.76953 A 40 40 0 0 1 522.15039 378.57617 A 40 40 0 0 1 521.42383 377.84961 A 40 40 0 0 1 513.23047 365.58398 A 40 40 0 0 1 512.95117 364.83789 A 40 40 0 0 1 510 350 A 40 40 0 0 1 512.95117 335.16211 A 40 40 0 0 1 513.23047 334.41602 A 40 40 0 0 1 521.42383 322.15039 A 40 40 0 0 1 522.15039 321.42383 A 40 40 0 0 1 534.41602 313.23047 A 40 40 0 0 1 535.16211 312.95117 A 40 40 0 0 1 550 310 z M 650 310 A 40 40 0 0 1 655.58398 310.39844 A 40 40 0 0 1 655.75391 310.41992 A 40 40 0 0 1 661.15039 311.5957 A 40 40 0 0 1 661.3418 311.64844 A 40 40 0 0 1 666.47266 313.56055 A 40 40 0 0 1 666.71484 313.66797 A 40 40 0 0 1 671.4668 316.26367 A 40 40 0 0 1 671.74609 316.43945 A 40 40 0 0 1 676.04688 319.6582 A 40 40 0 0 1 676.31641 319.89062 A 40 40 0 0 1 680.10938 323.68359 A 40 40 0 0 1 680.3418 323.95312 A 40 40 0 0 1 683.56055 328.25391 A 40 40 0 0 1 683.73633 328.5332 A 40 40 0 0 1 686.33203 333.28516 A 40 40 0 0 1 686.43945 333.52734 A 40 40 0 0 1 688.35156 338.6582 A 40 40 0 0 1 688.4043 338.84961 A 40 40 0 0 1 689.58008 344.24609 A 40 40 0 0 1 689.60156 344.41602 A 40 40 0 0 1 690 350 A 40 40 0 0 1 687.04883 364.83789 A 40 40 0 0 1 686.76953 365.58398 A 40 40 0 0 1 678.57617 377.84961 A 40 40 0 0 1 677.84961 378.57617 A 40 40 0 0 1 665.58398 386.76953 A 40 40 0 0 1 664.83789 387.04883 A 40 40 0 0 1 650 390 A 40 40 0 0 1 635.16211 387.04883 A 40 40 0 0 1 634.41602 386.76953 A 40 40 0 0 1 622.15039 378.57617 A 40 40 0 0 1 621.42383 377.84961 A 40 40 0 0 1 613.23047 365.58398 A 40 40 0 0 1 612.95117 364.83789 A 40 40 0 0 1 610 350 A 40 40 0 0 1 612.95117 335.16211 A 40 40 0 0 1 613.23047 334.41602 A 40 40 0 0 1 621.42383 322.15039 A 40 40 0 0 1 622.15039 321.42383 A 40 40 0 0 1 634.41602 313.23047 A 40 40 0 0 1 635.16211 312.95117 A 40 40 0 0 1 650 310 z M 50 410 A 40 40 0 0 1 90 450 A 40 40 0 0 1 50 490 A 40 40 0 0 1 10 450 A 40 40 0 0 1 50 410 z M 150 410 A 40 40 0 0 1 190 450 A 40 40 0 0 1 150 490 A 40 40 0 0 1 110 450 A 40 40 0 0 1 150 410 z M 250 410 A 40 40 0 0 1 290 450 A 40 40 0 0 1 250 490 A 40 40 0 0 1 210 450 A 40 40 0 0 1 250 410 z M 350 410 A 40 40 0 0 1 390 450 A 40 40 0 0 1 350 490 A 40 40 0 0 1 310 450 A 40 40 0 0 1 350 410 z M 450 410 A 40 40 0 0 1 490 450 A 40 40 0 0 1 450 490 A 40 40 0 0 1 410 450 A 40 40 0 0 1 450 410 z M 550 410 A 40 40 0 0 1 590 450 A 40 40 0 0 1 550 490 A 40 40 0 0 1 510 450 A 40 40 0 0 1 550 410 z M 650 410 A 40 40 0 0 1 690 450 A 40 40 0 0 1 650 490 A 40 40 0 0 1 610 450 A 40 40 0 0 1 650 410 z M 50 510 A 40 40 0 0 1 90 550 A 40 40 0 0 1 50 590 A 40 40 0 0 1 10 550 A 40 40 0 0 1 50 510 z M 150 510 A 40 40 0 0 1 190 550 A 40 40 0 0 1 150 590 A 40 40 0 0 1 110 550 A 40 40 0 0 1 150 510 z M 250 510 A 40 40 0 0 1 290 550 A 40 40 0 0 1 250 590 A 40 40 0 0 1 210 550 A 40 40 0 0 1 250 510 z M 350 510 A 40 40 0 0 1 390 550 A 40 40 0 0 1 350 590 A 40 40 0 0 1 310 550 A 40 40 0 0 1 350 510 z M 450 510 A 40 40 0 0 1 490 550 A 40 40 0 0 1 450 590 A 40 40 0 0 1 410 550 A 40 40 0 0 1 450 510 z M 550 510 A 40 40 0 0 1 590 550 A 40 40 0 0 1 550 590 A 40 40 0 0 1 510 550 A 40 40 0 0 1 550 510 z M 650 510 A 40 40 0 0 1 690 550 A 40 40 0 0 1 650 590 A 40 40 0 0 1 610 550 A 40 40 0 0 1 650 510 z " />
  </g>
</svg>
